<svg width="11" height="12" viewBox="0 0 11 12" fill="none" xmlns="http://www.w3.org/2000/svg">
<g id="Icons/star-full">
<path id="Vector" d="M3.23443 10.0091C3.31108 10.0143 3.38764 9.9977 3.45551 9.96112L5.57143 8.83954L7.67908 9.96532C7.73708 9.99858 7.80259 10.0159 7.86918 10.0157C7.95672 10.016 8.0421 9.9881 8.11301 9.93591C8.17712 9.88923 8.22676 9.82487 8.25605 9.75043C8.28534 9.676 8.29307 9.5946 8.27831 9.51585L3.23443 10.0091ZM3.23443 10.0091C3.15778 10.0039 3.08407 9.97712 3.02158 9.93171M3.23443 10.0091L9.70408 5.02112L9.34119 5.14438L9.34119 5.14438L9.31629 5.15284L9.31277 5.15404C9.31229 5.1526 9.31168 5.15172 9.31128 5.15125L9.30042 5.1503L9.28856 5.14854M3.02158 9.93171L3.26184 9.60176L3.26205 9.60146L3.26206 9.60145L3.26368 9.59922L3.26484 9.59763C3.26481 9.59761 3.264 9.59698 3.26326 9.59529M3.02158 9.93171L3.26163 9.60137L3.2621 9.60071L3.26211 9.60071L3.26347 9.59883L3.26452 9.59739C3.26452 9.5974 3.26434 9.59727 3.26395 9.59712L3.2624 9.59681L3.26237 9.59681C3.26098 9.59671 3.25992 9.59707 3.25945 9.59732L3.26195 9.59597L3.26196 9.59598L3.26326 9.59529M3.02158 9.93171C2.95746 9.88503 2.90783 9.82067 2.87854 9.74623C2.84925 9.6718 2.84152 9.5904 2.85627 9.51165L3.26954 7.12566L1.56275 5.44539C1.50963 5.3915 1.47195 5.32393 1.45375 5.24993L9.28856 5.14854M3.26326 9.59529L5.37788 8.4744L5.57217 8.37141L5.76613 8.47501L7.87133 9.59948M3.26326 9.59529C3.2632 9.59517 3.26315 9.59504 3.2631 9.5949C3.2623 9.59286 3.26199 9.59029 3.26247 9.58774L3.26251 9.58775L3.26348 9.58217L3.67674 7.19619L3.71367 6.98297L3.55947 6.83116L1.85668 5.15483C1.85618 5.15417 1.85549 5.153 1.85505 5.15122C1.85483 5.15033 1.85471 5.14941 1.85468 5.14849L1.85551 5.14836L4.20699 4.79551L4.42218 4.76321L4.51733 4.56751L5.57116 2.39996L5.57117 2.39997L5.57143 2.39941L5.57156 2.39968L6.62539 4.57143L6.72067 4.7678L6.93658 4.79981L9.28806 5.14847L9.28856 5.14854M7.87133 9.59948C7.87059 9.60118 7.86977 9.60181 7.86975 9.60183L7.86974 9.60183L7.86888 9.60246L7.86781 9.60246C7.86816 9.60246 7.86851 9.60247 7.86886 9.60248L7.86806 9.60307C7.86804 9.60308 7.86827 9.60291 7.86877 9.60275C7.86891 9.6027 7.86906 9.60266 7.86922 9.60262C7.86941 9.60258 7.86961 9.60254 7.86983 9.60252C7.86998 9.60252 7.87012 9.60253 7.87027 9.60254C7.8704 9.60255 7.87054 9.60256 7.87068 9.60257C7.87136 9.60263 7.87205 9.6027 7.87272 9.60279C7.87713 9.6034 7.8812 9.60483 7.88466 9.60681L7.88475 9.60665L7.87379 9.60079L7.87133 9.59948ZM7.87133 9.59948C7.87139 9.59936 7.87144 9.59923 7.87149 9.5991C7.87229 9.59706 7.87259 9.59449 7.87212 9.59194L7.87107 9.58638L7.87111 9.58638L7.45785 7.20039L7.42092 6.98717L7.57512 6.83536L9.28191 5.15509L9.28856 5.14854M7.87068 9.60245H7.87066H7.87068ZM9.31263 5.14859L9.31086 5.15082L9.31263 5.14859Z" fill="#FFB01D" stroke="#FFB01D" stroke-width="0.826531"/>
</g>
</svg>
